<svg width="24" height="24" viewBox="0 0 24 24" fill="none" xmlns="http://www.w3.org/2000/svg">
<path d="M21.9998 10.75H1.99976C1.58976 10.75 1.24976 10.41 1.24976 10C1.24976 9.59 1.58976 9.25 1.99976 9.25H21.9998C22.4098 9.25 22.7498 9.59 22.7498 10C22.7498 10.41 22.4098 10.75 21.9998 10.75Z" fill="#292D32"/>
<path d="M11.55 21.25H6.44C2.46 21.25 1.23999 20.05 1.23999 16.11V7.89001C1.23999 4.74001 1.90998 2.99001 5.47998 2.78001C5.77998 2.77001 6.1 2.76001 6.44 2.76001H17.55C21.53 2.76001 22.75 3.96001 22.75 7.90001V12.31C22.75 12.72 22.41 13.06 22 13.06C21.59 13.06 21.25 12.72 21.25 12.31V7.90001C21.25 4.81001 20.7 4.26001 17.55 4.26001H6.44C6.12 4.26001 5.82999 4.27001 5.54999 4.28001C3.37999 4.41001 2.73999 4.90001 2.73999 7.90001V16.12C2.73999 19.21 3.29 19.76 6.44 19.76H11.55C11.96 19.76 12.3 20.1 12.3 20.51C12.3 20.92 11.97 21.25 11.55 21.25Z" fill="#292D32"/>
<path d="M9.99976 16.75H5.99976C5.58976 16.75 5.24976 16.41 5.24976 16C5.24976 15.59 5.58976 15.25 5.99976 15.25H9.99976C10.4098 15.25 10.7498 15.59 10.7498 16C10.7498 16.41 10.4098 16.75 9.99976 16.75Z" fill="#292D32"/>
<path d="M17.9998 22.75C16.3398 22.75 14.7798 21.87 13.9398 20.44C13.4898 19.72 13.2498 18.87 13.2498 18C13.2498 15.38 15.3798 13.25 17.9998 13.25C20.6198 13.25 22.7498 15.38 22.7498 18C22.7498 18.87 22.5098 19.72 22.0598 20.45C21.2198 21.87 19.6598 22.75 17.9998 22.75ZM17.9998 14.75C16.2098 14.75 14.7498 16.21 14.7498 18C14.7498 18.59 14.9097 19.17 15.2197 19.67C15.7997 20.65 16.8698 21.25 17.9998 21.25C19.1298 21.25 20.1998 20.65 20.7798 19.68C21.0898 19.17 21.2498 18.6 21.2498 18C21.2498 16.21 19.7898 14.75 17.9998 14.75Z" fill="#292D32"/>
<path d="M17.4297 19.7401C17.2397 19.7401 17.0497 19.6701 16.8997 19.5201L15.9096 18.5301C15.6196 18.2401 15.6196 17.7601 15.9096 17.4701C16.1996 17.1801 16.6796 17.1801 16.9696 17.4701L17.4497 17.9501L19.0497 16.4701C19.3497 16.1901 19.8297 16.2101 20.1097 16.5101C20.3897 16.8101 20.3697 17.2901 20.0697 17.5701L17.9397 19.54C17.7897 19.67 17.6097 19.7401 17.4297 19.7401Z" fill="#292D32"/>
</svg>
