<svg width="48" height="23" viewBox="0 0 48 23" fill="none" xmlns="http://www.w3.org/2000/svg">
<path d="M41.75 19.5H31.75C27.34 19.5 26 18.16 26 13.75V5.75C26 1.34 27.34 0 31.75 0H41.75C46.16 0 47.5 1.34 47.5 5.75V13.75C47.5 18.16 46.16 19.5 41.75 19.5ZM31.75 1.5C28.17 1.5 27.5 2.18 27.5 5.75V13.75C27.5 17.32 28.17 18 31.75 18H41.75C45.33 18 46 17.32 46 13.75V5.75C46 2.18 45.33 1.5 41.75 1.5H31.75Z" fill="#0457BF"/>
<path d="M43.75 6.5H38.75C38.34 6.5 38 6.16 38 5.75C38 5.34 38.34 5 38.75 5H43.75C44.16 5 44.5 5.34 44.5 5.75C44.5 6.16 44.16 6.5 43.75 6.5Z" fill="#0457BF"/>
<path d="M43.75 10.5H39.75C39.34 10.5 39 10.16 39 9.75C39 9.34 39.34 9 39.75 9H43.75C44.16 9 44.5 9.34 44.5 9.75C44.5 10.16 44.16 10.5 43.75 10.5Z" fill="#0457BF"/>
<path d="M43.75 14.5H41.75C41.34 14.5 41 14.16 41 13.75C41 13.34 41.34 13 41.75 13H43.75C44.16 13 44.5 13.34 44.5 13.75C44.5 14.16 44.16 14.5 43.75 14.5Z" fill="#0457BF"/>
<path d="M33.2499 9.79C31.8399 9.79 30.6899 8.64 30.6899 7.22998C30.6899 5.81998 31.8399 4.66998 33.2499 4.66998C34.6599 4.66998 35.8099 5.81998 35.8099 7.22998C35.8099 8.64 34.6599 9.79 33.2499 9.79ZM33.2499 6.16998C32.6699 6.16998 32.1899 6.64998 32.1899 7.22998C32.1899 7.81 32.6699 8.29 33.2499 8.29C33.8299 8.29 34.3099 7.81 34.3099 7.22998C34.3099 6.64998 33.8299 6.16998 33.2499 6.16998Z" fill="#0457BF"/>
<path d="M36.7499 14.83C36.3699 14.83 36.0399 14.54 35.9999 14.15C35.8899 13.07 35.0199 12.2 33.9299 12.1C33.4699 12.06 33.0099 12.06 32.5499 12.1C31.4599 12.2 30.5899 13.06 30.4799 14.15C30.4399 14.56 30.0699 14.87 29.6599 14.82C29.2499 14.78 28.9499 14.41 28.9899 14C29.1699 12.2 30.5999 10.77 32.4099 10.61C32.9599 10.56 33.5199 10.56 34.0699 10.61C35.8699 10.78 37.3099 12.21 37.4899 14C37.5299 14.41 37.2299 14.78 36.8199 14.82C36.7999 14.83 36.7699 14.83 36.7499 14.83Z" fill="#0457BF"/>
<path d="M9.132 7.428L10.392 14.184L11.484 14.292C11.484 14.508 11.416 14.744 11.28 15H8.52L8.484 14.58C8.724 14.476 9.02 14.392 9.372 14.328L8.088 7.596L6.504 14.424H5.316L3.132 7.572L2.16 14.184L3.18 14.28C3.18 14.504 3.112 14.744 2.976 15H0.216L0.18 14.58C0.532 14.452 0.884 14.356 1.236 14.292L2.292 7.332C1.804 7.26 1.416 7.176 1.128 7.08L1.176 6.6H3.972L5.88 13.176H5.928L7.416 6.6H10.092C10.228 6.856 10.296 7.104 10.296 7.344C9.776 7.4 9.388 7.428 9.132 7.428ZM15.1402 14.328C15.4922 14.328 16.0442 14.16 16.7962 13.824C16.9482 14.032 17.0282 14.216 17.0362 14.376C16.6282 14.616 16.2282 14.804 15.8362 14.94C15.4442 15.076 15.1642 15.144 14.9962 15.144C14.0682 15.144 13.3602 14.868 12.8722 14.316C12.3842 13.756 12.1402 12.976 12.1402 11.976C12.1402 10.976 12.3762 10.192 12.8482 9.624C13.3282 9.048 14.0442 8.76 14.9962 8.76C15.7322 8.76 16.2922 9.024 16.6762 9.552C17.0682 10.08 17.2642 10.788 17.2642 11.676C17.2002 11.788 17.1482 11.864 17.1082 11.904L13.2442 11.844C13.2522 12.652 13.3922 13.268 13.6642 13.692C13.9442 14.116 14.4362 14.328 15.1402 14.328ZM16.1722 11.16C16.1722 10.632 16.0762 10.224 15.8842 9.936C15.6922 9.64 15.3722 9.492 14.9242 9.492C14.4762 9.492 14.0762 9.576 13.7242 9.744C13.4842 10.224 13.3322 10.716 13.2682 11.22C13.9002 11.212 14.8682 11.192 16.1722 11.16ZM22.3608 9.444L22.3248 7.044C21.8848 7.02 21.5328 6.972 21.2688 6.9L21.3168 6.276C21.7248 6.156 22.3168 6.096 23.0928 6.096C23.3408 6.096 23.5168 6.104 23.6208 6.12C23.6208 6.264 23.5968 6.456 23.5488 6.696C23.5088 6.928 23.4808 7.056 23.4648 7.08L23.3568 14.172C23.6848 14.188 24.0328 14.244 24.4008 14.34L24.3768 14.76C23.8248 15.016 23.3368 15.144 22.9128 15.144C22.8248 15.144 22.7568 15.14 22.7088 15.132C22.6448 15.012 22.5648 14.736 22.4688 14.304C21.5488 14.824 20.9048 15.104 20.5368 15.144C19.7688 15.144 19.1928 14.852 18.8088 14.268C18.4248 13.684 18.2328 12.936 18.2328 12.024C18.2328 11.104 18.4248 10.332 18.8088 9.708C19.2008 9.076 19.7768 8.76 20.5368 8.76C21.1288 8.76 21.7368 8.988 22.3608 9.444ZM20.7408 9.576C19.8048 9.576 19.3368 10.344 19.3368 11.88C19.3368 12.48 19.4328 13 19.6248 13.44C19.7208 13.68 19.8608 13.872 20.0448 14.016C20.2368 14.16 20.4568 14.232 20.7048 14.232C20.9528 14.232 21.2408 14.176 21.5688 14.064C21.9048 13.952 22.1928 13.824 22.4328 13.68L22.3608 10.26C22.1448 10.076 21.8808 9.916 21.5688 9.78C21.2568 9.644 20.9808 9.576 20.7408 9.576Z" fill="white"/>
</svg>
