<svg width="48" height="23" viewBox="0 0 48 23" fill="none" xmlns="http://www.w3.org/2000/svg">
<path d="M41.75 19.5H31.75C27.34 19.5 26 18.16 26 13.75V5.75C26 1.34 27.34 0 31.75 0H41.75C46.16 0 47.5 1.34 47.5 5.75V13.75C47.5 18.16 46.16 19.5 41.75 19.5ZM31.75 1.5C28.17 1.5 27.5 2.18 27.5 5.75V13.75C27.5 17.32 28.17 18 31.75 18H41.75C45.33 18 46 17.32 46 13.75V5.75C46 2.18 45.33 1.5 41.75 1.5H31.75Z" fill="#0457BF"/>
<path d="M43.75 6.5H38.75C38.34 6.5 38 6.16 38 5.75C38 5.34 38.34 5 38.75 5H43.75C44.16 5 44.5 5.34 44.5 5.75C44.5 6.16 44.16 6.5 43.75 6.5Z" fill="#0457BF"/>
<path d="M43.75 10.5H39.75C39.34 10.5 39 10.16 39 9.75C39 9.34 39.34 9 39.75 9H43.75C44.16 9 44.5 9.34 44.5 9.75C44.5 10.16 44.16 10.5 43.75 10.5Z" fill="#0457BF"/>
<path d="M43.75 14.5H41.75C41.34 14.5 41 14.16 41 13.75C41 13.34 41.34 13 41.75 13H43.75C44.16 13 44.5 13.34 44.5 13.75C44.5 14.16 44.16 14.5 43.75 14.5Z" fill="#0457BF"/>
<path d="M33.2499 9.79C31.8399 9.79 30.6899 8.64 30.6899 7.22998C30.6899 5.81998 31.8399 4.66998 33.2499 4.66998C34.6599 4.66998 35.8099 5.81998 35.8099 7.22998C35.8099 8.64 34.6599 9.79 33.2499 9.79ZM33.2499 6.16998C32.6699 6.16998 32.1899 6.64998 32.1899 7.22998C32.1899 7.81 32.6699 8.29 33.2499 8.29C33.8299 8.29 34.3099 7.81 34.3099 7.22998C34.3099 6.64998 33.8299 6.16998 33.2499 6.16998Z" fill="#0457BF"/>
<path d="M36.7499 14.83C36.3699 14.83 36.0399 14.54 35.9999 14.15C35.8899 13.07 35.0199 12.2 33.9299 12.1C33.4699 12.06 33.0099 12.06 32.5499 12.1C31.4599 12.2 30.5899 13.06 30.4799 14.15C30.4399 14.56 30.0699 14.87 29.6599 14.82C29.2499 14.78 28.9499 14.41 28.9899 14C29.1699 12.2 30.5999 10.77 32.4099 10.61C32.9599 10.56 33.5199 10.56 34.0699 10.61C35.8699 10.78 37.3099 12.21 37.4899 14C37.5299 14.41 37.2299 14.78 36.8199 14.82C36.7999 14.83 36.7699 14.83 36.7499 14.83Z" fill="#0457BF"/>
<path d="M1.96 14L2.26 5.84H3.376L5.884 11.588L8.404 5.84H9.52L9.82 14H8.86L8.62 7.616L6.388 12.728H5.392L3.148 7.616L2.92 14H1.96ZM11.7212 14V5.84H16.1612V6.704H12.6812V9.488H15.5252V10.352H12.6812V13.136H16.4012V14H11.7212ZM17.9823 14V5.84H20.8983C22.0503 5.84 22.9143 6.22 23.4903 6.98C24.0663 7.74 24.3543 8.72 24.3543 9.92C24.3543 11.12 24.0663 12.1 23.4903 12.86C22.9143 13.62 22.0503 14 20.8983 14H17.9823ZM20.8983 6.704H18.9423V13.136H20.8983C21.7303 13.136 22.3543 12.84 22.7703 12.248C23.1863 11.648 23.3943 10.872 23.3943 9.92C23.3943 8.968 23.1863 8.196 22.7703 7.604C22.3543 7.004 21.7303 6.704 20.8983 6.704Z" fill="white"/>
</svg>
