<svg xmlns="http://www.w3.org/2000/svg" width="40" height="50" viewBox="0 0 40 50">
  <g id="Group_584" data-name="Group 584" transform="translate(-1713 -3851)">
    <g id="Group_583" data-name="Group 583">
      <g id="Group_563" data-name="Group 563" transform="translate(-536 52)" opacity="0.2">
        <rect id="Rectangle_184" data-name="Rectangle 184" width="40" height="50" rx="5" transform="translate(2249 3799)" fill="#ff003d"/>
      </g>
      <g id="Group_559" data-name="Group 559">
        <g id="Group_555" data-name="Group 555" transform="translate(-1464.5 3582)">
          <path id="Path_181" data-name="Path 181" d="M3217.5,274v40a5,5,0,0,1-5,5h-30a5,5,0,0,1-5-5V282.17L3190.67,269h21.83A5,5,0,0,1,3217.5,274Z" fill="#ff003d"/>
          <g id="W" transform="translate(0 14)">
            <text id="pdf" transform="translate(3197 296)" fill="#fff" font-size="13" font-family="Helvetica"><tspan x="-9.036" y="0">pdf</tspan></text>
          </g>
          <path id="Path_182" data-name="Path 182" d="M3177.5,282.17,3190.67,269v8.17a5,5,0,0,1-5,5Z" fill="#c2002e"/>
        </g>
      </g>
    </g>
  </g>
</svg>
