<svg xmlns="http://www.w3.org/2000/svg" width="40" height="50" viewBox="0 0 40 50">
  <g id="Group_568" data-name="Group 568" transform="translate(-16 -824)">
    <g id="Group_549" data-name="Group 549" transform="translate(-2233 -2975)">
      <rect id="Rectangle_184" data-name="Rectangle 184" width="40" height="50" rx="5" transform="translate(2249 3799)" fill="rgba(255,145,0,0.2)"/>
    </g>
    <g id="Group_562" data-name="Group 562" transform="translate(-1697 -2958)">
      <g id="Group_554" data-name="Group 554" transform="translate(-1464.5 3513)">
        <path id="Path_181" data-name="Path 181" d="M3217.5,274v40a5,5,0,0,1-5,5h-30a5,5,0,0,1-5-5V282.17L3190.67,269h21.83A5,5,0,0,1,3217.5,274Z" fill="#ff9100"/>
        <g id="W" transform="translate(0 14)">
          <text id="ppt" transform="translate(3197.5 296)" fill="#fff" font-size="13" font-family="Helvetica"><tspan x="-9.036" y="0">ppt</tspan></text>
        </g>
        <path id="Path_182" data-name="Path 182" d="M3177.5,282.17,3190.67,269v8.17a5,5,0,0,1-5,5Z" fill="#e17a00"/>
      </g>
    </g>
  </g>
</svg>
