<svg width="21" height="20" viewBox="0 0 21 20" fill="none" xmlns="http://www.w3.org/2000/svg">
<path d="M17.6834 10.8916C17.3667 10.8916 17.1 10.65 17.0584 10.3333C16.8584 8.44996 15.8417 6.74163 14.275 5.6583C13.9917 5.4583 13.925 5.07496 14.1167 4.79163C14.3167 4.5083 14.7084 4.44163 14.9834 4.6333C16.85 5.92496 18.05 7.9583 18.2917 10.2C18.325 10.5416 18.0834 10.85 17.7334 10.8916C17.725 10.8916 17.7 10.8916 17.6834 10.8916Z" fill="white"/>
<path d="M3.40923 10.9337C3.38423 10.9337 3.36756 10.9337 3.34256 10.9337C3.0009 10.892 2.7509 10.5837 2.78423 10.242C3.00923 8.00038 4.2009 5.97538 6.04256 4.66704C6.3259 4.46704 6.71756 4.53371 6.91756 4.81704C7.11756 5.10038 7.0509 5.49204 6.76756 5.69204C5.21756 6.78371 4.21756 8.49204 4.0259 10.3754C4.0009 10.692 3.7259 10.9337 3.40923 10.9337Z" fill="white"/>
<path d="M10.5513 18.842C9.31794 18.842 8.14294 18.5586 7.04294 18.0086C6.73461 17.8503 6.60961 17.4753 6.76794 17.167C6.92627 16.8586 7.30127 16.7336 7.60961 16.892C9.40961 17.8003 11.5763 17.817 13.3929 16.942C13.7013 16.792 14.0763 16.9253 14.2263 17.2336C14.3763 17.542 14.2429 17.917 13.9346 18.067C12.8679 18.5836 11.7346 18.842 10.5513 18.842Z" fill="white"/>
<path d="M10.551 7.03372C8.92604 7.03372 7.60938 5.71706 7.60938 4.09206C7.60938 2.46706 8.92604 1.15039 10.551 1.15039C12.176 1.15039 13.4927 2.46706 13.4927 4.09206C13.4927 5.71706 12.1677 7.03372 10.551 7.03372ZM10.551 2.40872C9.61771 2.40872 8.85938 3.16706 8.85938 4.10039C8.85938 5.03372 9.61771 5.79206 10.551 5.79206C11.4844 5.79206 12.2427 5.03372 12.2427 4.10039C12.2427 3.16706 11.476 2.40872 10.551 2.40872Z" fill="white"/>
<path d="M4.5237 17.2251C2.8987 17.2251 1.58203 15.9085 1.58203 14.2835C1.58203 12.6668 2.8987 11.3418 4.5237 11.3418C6.1487 11.3418 7.46536 12.6585 7.46536 14.2835C7.46536 15.9001 6.1487 17.2251 4.5237 17.2251ZM4.5237 12.5918C3.59036 12.5918 2.83203 13.3501 2.83203 14.2835C2.83203 15.2168 3.59036 15.9751 4.5237 15.9751C5.45703 15.9751 6.21536 15.2168 6.21536 14.2835C6.21536 13.3501 5.45703 12.5918 4.5237 12.5918Z" fill="white"/>
<path d="M16.4768 17.2251C14.8518 17.2251 13.5352 15.9085 13.5352 14.2835C13.5352 12.6668 14.8518 11.3418 16.4768 11.3418C18.1018 11.3418 19.4185 12.6585 19.4185 14.2835C19.4102 15.9001 18.0935 17.2251 16.4768 17.2251ZM16.4768 12.5918C15.5435 12.5918 14.7852 13.3501 14.7852 14.2835C14.7852 15.2168 15.5435 15.9751 16.4768 15.9751C17.4102 15.9751 18.1685 15.2168 18.1685 14.2835C18.1602 13.3501 17.4102 12.5918 16.4768 12.5918Z" fill="white"/>
</svg>
